2014050_C5_05_grf
version=1
nRows=27
nColumns=19
inDegrees=no
endheader
time	ground_force_1_vx	ground_force_1_vy	ground_force_1_vz	ground_force_1_px	ground_force_1_py	ground_force_1_pz	ground_force_1_mx	ground_force_1_my	ground_force_1_mz	ground_force_2_vx	ground_force_2_vy	ground_force_2_vz	ground_force_2_px	ground_force_2_py	ground_force_2_pz	ground_force_2_mx	ground_force_2_my	ground_force_2_mz
      0.35500000	      5.29267360	    437.78347969	     17.36091971	      0.24105005	     -0.00200000	     -0.25987958	      0.00000000	     -1.22129606	      0.00000000	      0.00000000	      0.00000000	      0.00000000	      0.00000000	      0.00000000	      0.00000000	      0.00000000	      0.00000000	      0.00000000
      0.35600000	      5.78541821	    439.31424618	     17.07377024	      0.24122900	     -0.00200000	     -0.25976019	      0.00000000	     -1.23400643	      0.00000000	      0.00000000	      0.00000000	      0.00000000	      0.00000000	      0.00000000	      0.00000000	      0.00000000	      0.00000000	      0.00000000
      0.35700000	      6.28553820	    440.89257717	     16.78486727	      0.24140146	     -0.00200000	     -0.25963821	      0.00000000	     -1.24781223	      0.00000000	      0.00000000	      0.00000000	      0.00000000	      0.00000000	      0.00000000	      0.00000000	      0.00000000	      0.00000000	      0.00000000
      0.35800000	      6.79141888	    442.50875711	     16.49491154	      0.24156902	     -0.00200000	     -0.25951430	      0.00000000	     -1.26247097	      0.00000000	      0.00000000	      0.00000000	      0.00000000	      0.00000000	      0.00000000	      0.00000000	      0.00000000	      0.00000000	      0.00000000
      0.35900000	      7.30432733	    444.17200983	     16.20408576	      0.24173082	     -0.00200000	     -0.25938814	      0.00000000	     -1.27816427	      0.00000000	      0.00000000	      0.00000000	      0.00000000	      0.00000000	      0.00000000	      0.00000000	      0.00000000	      0.00000000	      0.00000000
      0.36000000	      7.82272313	    445.87278366	     15.91292247	      0.24188831	     -0.00200000	     -0.25926031	      0.00000000	     -1.29465957	      0.00000000	      0.00000000	      0.00000000	      0.00000000	      0.00000000	      0.00000000	      0.00000000	      0.00000000	      0.00000000	      0.00000000
      0.36100000	      8.34782235	    447.62024283	     15.62178489	      0.24204074	     -0.00200000	     -0.25913059	      0.00000000	     -1.31212403	      0.00000000	      0.00000000	      0.00000000	      0.00000000	      0.00000000	      0.00000000	      0.00000000	      0.00000000	      0.00000000	      0.00000000
      0.36200000	      8.87816865	    449.40501451	     15.33102840	      0.24218939	     -0.00200000	     -0.25899949	      0.00000000	     -1.33033588	      0.00000000	      0.00000000	      0.00000000	      0.00000000	      0.00000000	      0.00000000	      0.00000000	      0.00000000	      0.00000000	      0.00000000
      0.36300000	      9.41494154	    451.23623312	     15.04120566	      0.24233365	     -0.00200000	     -0.25886684	      0.00000000	     -1.34944489	      0.00000000	      0.00000000	      0.00000000	      0.00000000	      0.00000000	      0.00000000	      0.00000000	      0.00000000	      0.00000000	      0.00000000
      0.36400000	      9.95675381	    453.10458541	     14.75249827	      0.24247465	     -0.00200000	     -0.25873308	      0.00000000	     -1.36924027	      0.00000000	      0.00000000	      0.00000000	      0.00000000	      0.00000000	      0.00000000	      0.00000000	      0.00000000	      0.00000000	      0.00000000
      0.36500000	     10.50474821	    455.01929522	     14.46564775	      0.24261189	     -0.00200000	     -0.25859810	      0.00000000	     -1.38985390	      0.00000000	      0.00000000	      0.00000000	      0.00000000	      0.00000000	      0.00000000	      0.00000000	      0.00000000	      0.00000000	      0.00000000
      0.36600000	     11.05760131	    456.97104931	     14.18064572	      0.24274639	     -0.00200000	     -0.25846228	      0.00000000	     -1.41109116	      0.00000000	      0.00000000	      0.00000000	      0.00000000	      0.00000000	      0.00000000	      0.00000000	      0.00000000	      0.00000000	      0.00000000
      0.36700000	     11.61641255	    458.96902680	     13.89840022	      0.24287773	     -0.00200000	     -0.25832557	      0.00000000	     -1.43307094	      0.00000000	      0.00000000	      0.00000000	      0.00000000	      0.00000000	      0.00000000	      0.00000000	      0.00000000	      0.00000000	      0.00000000
      0.36800000	     12.17989437	    461.00395918	     13.61870170	      0.24300679	     -0.00200000	     -0.25818830	      0.00000000	     -1.45561555	      0.00000000	      0.00000000	      0.00000000	      0.00000000	      0.00000000	      0.00000000	      0.00000000	      0.00000000	      0.00000000	      0.00000000
      0.36900000	     12.74909172	    463.08505535	     13.34259789	      0.24313326	     -0.00200000	     -0.25805046	      0.00000000	     -1.47883040	      0.00000000	      0.00000000	      0.00000000	      0.00000000	      0.00000000	      0.00000000	      0.00000000	      0.00000000	      0.00000000	      0.00000000
      0.37000000	     13.32276501	    465.20304680	     13.06968592	      0.24325787	     -0.00200000	     -0.25791228	      0.00000000	     -1.50255291	      0.00000000	      0.00000000	      0.00000000	      0.00000000	      0.00000000	      0.00000000	      0.00000000	      0.00000000	      0.00000000	      0.00000000
      0.37100000	     13.90192192	    467.36709774	     12.80113757	      0.24338040	     -0.00200000	     -0.25777380	      0.00000000	     -1.52687531	      0.00000000	      0.00000000	      0.00000000	      0.00000000	      0.00000000	      0.00000000	      0.00000000	      0.00000000	      0.00000000	      0.00000000
      0.37200000	     14.48538806	    469.56801414	     12.53636666	      0.24350144	     -0.00200000	     -0.25763515	      0.00000000	     -1.55164964	      0.00000000	      0.00000000	      0.00000000	      0.00000000	      0.00000000	      0.00000000	      0.00000000	      0.00000000	      0.00000000	      0.00000000
      0.37300000	     15.07416600	    471.81497514	     12.27666121	      0.24362083	     -0.00200000	     -0.25749640	      0.00000000	     -1.57695401	      0.00000000	      0.00000000	      0.00000000	      0.00000000	      0.00000000	      0.00000000	      0.00000000	      0.00000000	      0.00000000	      0.00000000
      0.37400000	     15.66714793	    474.09877181	     12.02126965	      0.24373905	     -0.00200000	     -0.25735762	      0.00000000	     -1.60265407	      0.00000000	      0.00000000	      0.00000000	      0.00000000	      0.00000000	      0.00000000	      0.00000000	      0.00000000	      0.00000000	      0.00000000
      0.37500000	     16.26534387	    476.42852366	     11.77158281	      0.24385603	     -0.00200000	     -0.25721889	      0.00000000	     -1.62881148	      0.00000000	      0.00000000	      0.00000000	      0.00000000	      0.00000000	      0.00000000	      0.00000000	      0.00000000	      0.00000000	      0.00000000
      0.37600000	     16.86769910	    478.79499197	     11.52670495	      0.24397217	     -0.00200000	     -0.25708027	      0.00000000	     -1.65530541	      0.00000000	      0.00000000	      0.00000000	      0.00000000	      0.00000000	      0.00000000	      0.00000000	      0.00000000	      0.00000000	      0.00000000
      0.37700000	     17.47525763	    481.20725155	     11.28813531	      0.24408746	     -0.00200000	     -0.25694186	      0.00000000	     -1.68218235	      0.00000000	      0.00000000	      0.00000000	      0.00000000	      0.00000000	      0.00000000	      0.00000000	      0.00000000	      0.00000000	      0.00000000
      0.37800000	     18.08700152	    483.65598917	     11.05484180	      0.24420221	     -0.00200000	     -0.25680369	      0.00000000	     -1.70933350	      0.00000000	      0.00000000	      0.00000000	      0.00000000	      0.00000000	      0.00000000	      0.00000000	      0.00000000	      0.00000000	      0.00000000
      0.37900000	     18.70401483	    486.15008593	     10.82840413	      0.24431643	     -0.00200000	     -0.25666593	      0.00000000	     -1.73678480	      0.00000000	      0.00000000	      0.00000000	      0.00000000	      0.00000000	      0.00000000	      0.00000000	      0.00000000	      0.00000000	      0.00000000
      0.38000000	     19.32528615	    488.68024349	     10.60764603	      0.24443037	     -0.00200000	     -0.25652857	      0.00000000	     -1.76444119	      0.00000000	      0.00000000	      0.00000000	      0.00000000	      0.00000000	      0.00000000	      0.00000000	      0.00000000	      0.00000000	      0.00000000
      0.38100000	     19.95195262	    491.25517905	     10.39421763	      0.24454407	     -0.00200000	     -0.25639179	      0.00000000	     -1.79231133	      0.00000000	      0.00000000	      0.00000000	      0.00000000	      0.00000000	      0.00000000	      0.00000000	      0.00000000	      0.00000000	      0.00000000
